<svg xmlns="http://www.w3.org/2000/svg" width="64" height="64" viewBox="0 0 64 64"><path d="M14.00,6.08 L20.00,6.23 L26.00,6.08 L32.00,6.18 L37.95,6.13 L42.35,10.32 L46.67,14.67 L51.11,18.96 L51.23,25.50 L51.19,32.00 L51.22,38.50 L51.07,45.00 L51.03,51.50 L50.94,57.94 L44.83,57.86 L38.67,58.07 L32.50,58.11 L26.33,58.16 L20.17,58.19 L13.93,58.07 L14.08,51.50 L13.93,45.00 L13.91,38.50 L13.84,32.00 L13.72,25.50 L13.81,19.00 L13.72,12.50 L13.66,6.00 Z" fill="#14181b" stroke="#c7ccd1" stroke-width="2.4" stroke-linejoin="round" stroke-linecap="round"/><path d="M14.00,6.07 L20.00,6.24 L26.00,6.30 L32.00,6.00 L38.03,5.93 L42.58,10.09 L46.71,14.63 L50.80,19.08 L50.56,25.50 L50.58,32.00 L50.83,38.50 L50.77,45.00 L50.59,51.50 L50.95,57.95 L44.83,58.11 L38.67,58.19 L32.50,58.09 L26.33,58.05 L20.17,58.14 L14.09,57.92 L14.26,51.50 L14.25,45.00 L14.26,38.50 L14.38,32.00 L14.33,25.50 L14.32,19.00 L14.20,12.50 L13.90,6.00 Z" fill="none" stroke="#c7ccd1" stroke-width="0.96" opacity="0.42" stroke-linejoin="round" transform="translate(0.5,0.4)"/><path d="M37.87,6.00 L37.88,12.50 L37.96,19.04 L44.50,19.17 L51.00,19.08" fill="none" stroke="#c7ccd1" stroke-width="1.8" stroke-linecap="round" stroke-linejoin="round" opacity="1.0"/><path d="M32.00,37.97 L32.14,37.90 L32.17,38.09 L32.23,38.16 L32.24,38.27 L32.26,38.36 L32.21,38.46 L32.26,38.59 L32.22,38.72 L32.05,38.78 L32.00,38.95 L31.89,39.13 L31.65,39.04 L31.47,39.25 L31.21,39.30 L30.96,39.23 L30.70,39.12 L30.45,38.96 L30.16,38.81 L29.96,38.54 L29.79,38.23 L29.82,37.84 L29.71,37.49 L29.72,37.11 L29.98,36.77 L30.13,36.41 L30.27,36.03 L30.44,35.61 L30.90,35.46 L31.26,35.19 L31.66,34.93 L32.13,34.74 L32.64,34.74 L33.15,34.88 L33.62,35.15 L34.06,35.43 L34.47,35.74 L34.94,36.02 L35.22,36.51 L35.68,36.90 L36.06,37.41 L36.27,38.03 L36.22,38.70 L36.16,39.37 L35.87,40.00 L35.66,40.66 L35.19,41.19 L34.71,41.70 L34.12,42.11 L33.46,42.40 L32.85,42.88 L32.09,42.96 L31.31,42.93 L30.53,42.92 L29.70,42.87 L28.98,42.46 L28.28,41.99 L27.68,41.39 L27.08,40.78 L26.48,40.10 L26.24,39.21 L25.96,38.33 L25.84,37.39 L25.79,36.42 L25.99,35.44 L26.41,34.52 L26.89,33.60 L27.58,32.82 L28.44,32.22 L29.32,31.62 L30.26,31.06 L31.34,30.86 L32.45,30.67 L33.59,30.73 L34.69,31.05 L35.77,31.47 L36.70,32.16 L37.72,32.77 L38.47,33.71 L39.05,34.76 L39.67,35.80 L40.10,36.97 L40.33,38.22 L40.17,39.50 L40.04,40.79 L39.66,42.06 L39.05,43.25 L38.11,44.24 L37.16,45.19 L36.11,46.10 L34.82,46.64" fill="none" stroke="#c7ccd1" stroke-width="1.5" stroke-linecap="round" stroke-linejoin="round" opacity="0.9"/><path d="M19.00,52.09 L25.75,52.01 L32.50,52.06 L39.25,52.07 L46.00,51.90" fill="none" stroke="#c4162a" stroke-width="1.6" stroke-linecap="round" stroke-linejoin="round" opacity="1.0"/></svg>
