<svg xmlns="http://www.w3.org/2000/svg" width="64" height="64" viewBox="0 0 64 64"><path d="M6.00,16.93 L12.00,17.00 L18.00,17.04 L24.06,16.89 L29.01,22.97 L36.25,23.15 L43.50,23.28 L50.75,23.17 L57.90,23.10 L57.91,30.25 L58.06,37.50 L58.01,44.75 L58.13,52.12 L51.50,52.18 L45.00,52.03 L38.50,51.86 L32.00,51.74 L25.50,51.66 L19.00,51.80 L12.50,52.01 L6.02,51.98 L6.18,45.00 L6.23,38.00 L6.19,31.00 L5.96,24.00 L6.00,17.00 Z" fill="#14181b" stroke="#c7ccd1" stroke-width="2.4" stroke-linejoin="round" stroke-linecap="round"/><path d="M6.00,17.10 L12.00,16.89 L18.00,16.94 L24.07,16.86 L28.94,23.12 L36.25,22.83 L43.50,22.86 L50.75,22.71 L58.03,22.97 L58.26,30.25 L58.00,37.50 L57.85,44.75 L57.89,51.90 L51.50,51.80 L45.00,51.93 L38.50,51.89 L32.00,51.97 L25.50,52.04 L19.00,51.73 L12.50,51.80 L6.30,51.73 L6.56,45.00 L6.12,38.00 L5.81,31.00 L5.62,24.00 L5.47,17.00 Z" fill="none" stroke="#c7ccd1" stroke-width="0.96" opacity="0.42" stroke-linejoin="round" transform="translate(0.5,0.4)"/><path d="M33.06,38.01 L32.67,39.70 L31.78,41.18 L30.41,42.18 L28.83,42.68 L27.14,42.90 L25.52,42.29 L24.16,41.22 L23.36,39.69 L23.09,38.00 L23.31,36.29 L24.17,34.79 L25.55,33.75 L27.16,33.22 L28.83,33.31 L30.38,33.88 L31.71,34.88 L32.63,36.32 L32.94,38.01 L33.00,38.00 Z" fill="none" stroke="#c7ccd1" stroke-width="1.6" stroke-linecap="round" stroke-linejoin="round" opacity="1.0"/><path d="M41.08,38.01 L40.74,39.73 L39.84,41.22 L38.54,42.39 L36.88,42.98 L35.12,42.99 L33.43,42.45 L32.01,41.35 L31.27,39.72 L31.06,38.00 L31.34,36.30 L32.14,34.76 L33.50,33.67 L35.12,33.02 L36.89,32.93 L38.50,33.67 L39.94,34.69 L40.82,36.25 L41.17,37.97 L41.00,38.00 Z" fill="none" stroke="#c7ccd1" stroke-width="1.6" stroke-linecap="round" stroke-linejoin="round" opacity="1.0"/></svg>
