<svg xmlns="http://www.w3.org/2000/svg" width="64" height="64" viewBox="0 0 64 64"><path d="M6.00,17.15 L12.00,16.95 L18.00,16.92 L23.96,17.07 L29.03,22.94 L36.25,22.86 L43.50,22.86 L50.75,22.86 L58.08,22.92 L58.04,30.25 L57.92,37.50 L57.89,44.75 L58.04,52.04 L51.50,52.02 L45.00,51.85 L38.50,52.03 L32.00,51.86 L25.50,51.82 L19.00,51.82 L12.50,51.81 L6.18,51.84 L6.32,45.00 L6.10,38.00 L6.17,31.00 L5.99,24.00 L5.96,17.00 Z" fill="#14181b" stroke="#c7ccd1" stroke-width="2.4" stroke-linejoin="round" stroke-linecap="round"/><path d="M6.00,16.73 L12.00,16.92 L18.00,16.66 L24.10,16.81 L29.00,23.00 L36.25,22.93 L43.50,22.65 L50.75,22.62 L58.05,22.95 L58.11,30.25 L58.02,37.50 L58.17,44.75 L58.20,52.17 L51.50,52.12 L45.00,52.25 L38.50,52.27 L32.00,52.34 L25.50,52.47 L19.00,52.32 L12.50,52.35 L5.89,52.10 L6.15,45.00 L6.13,38.00 L6.10,31.00 L6.01,24.00 L6.07,17.00 Z" fill="none" stroke="#c7ccd1" stroke-width="0.96" opacity="0.42" stroke-linejoin="round" transform="translate(0.5,0.4)"/><path d="M51.12,23.04 L48.60,30.00 L50.95,35.50 L48.44,41.98" fill="none" stroke="#c4162a" stroke-width="1.8" stroke-linecap="round" stroke-linejoin="round" opacity="1.0"/><path d="M48.57,30.13 L45.09,32.15" fill="none" stroke="#c4162a" stroke-width="1.2" stroke-linecap="round" stroke-linejoin="round" opacity="1.0"/></svg>
