<svg xmlns="http://www.w3.org/2000/svg" width="64" height="64" viewBox="0 0 64 64"><path d="M6.00,16.93 L12.00,16.82 L18.00,16.74 L24.07,16.86 L29.08,22.83 L36.25,22.82 L43.50,22.95 L50.75,22.90 L58.07,22.93 L58.18,30.25 L58.29,37.50 L58.10,44.75 L58.12,52.11 L51.50,52.25 L45.00,52.22 L38.50,52.29 L32.00,52.15 L25.50,52.20 L19.00,52.24 L12.50,52.17 L5.84,52.15 L5.90,45.00 L5.86,38.00 L5.88,31.00 L6.08,24.00 L5.92,17.00 Z" fill="#14181b" stroke="#c7ccd1" stroke-width="2.4" stroke-linejoin="round" stroke-linecap="round"/><path d="M6.00,16.80 L12.00,16.87 L18.00,16.92 L23.94,17.11 L29.05,22.90 L36.25,22.84 L43.50,22.80 L50.75,23.10 L58.11,22.89 L58.12,30.25 L58.35,37.50 L57.98,44.75 L57.97,51.97 L51.50,52.14 L45.00,52.08 L38.50,52.06 L32.00,52.14 L25.50,52.39 L19.00,52.54 L12.50,52.15 L6.02,51.98 L6.04,45.00 L6.23,38.00 L5.87,31.00 L6.15,24.00 L6.25,17.00 Z" fill="none" stroke="#c7ccd1" stroke-width="0.96" opacity="0.42" stroke-linejoin="round" transform="translate(0.5,0.4)"/><path d="M23.00,32.05 L29.00,31.92 L35.00,31.95 L40.93,32.04 L40.91,41.95 L35.00,42.07 L29.00,41.98 L23.13,41.92 L22.99,32.00 Z" fill="none" stroke="#c7ccd1" stroke-width="1.6" stroke-linecap="round" stroke-linejoin="round" opacity="1.0"/><path d="M28.00,47.09 L36.00,47.07" fill="none" stroke="#c7ccd1" stroke-width="1.6" stroke-linecap="round" stroke-linejoin="round" opacity="1.0"/><path d="M31.90,42.00 L31.80,47.00" fill="none" stroke="#c7ccd1" stroke-width="1.4" stroke-linecap="round" stroke-linejoin="round" opacity="1.0"/></svg>
